#Comment line ignore any data following # character 
#Hierarchical Translation and Rotation (.htr) file 
[Header]	
#Header keywords are followed by a single value 
FileType HTR		#Single word string
DataType HTRS		#Translation followed by rotation and scale data
FileVersion 1		#integer
NumSegments 84		#integer
NumFrames 2		#integer
DataFrameRate 30		#integer, data frame rate in this file
EulerRotationOrder ZYX
CalibrationUnits mm
RotationUnits Degrees
GlobalAxisofGravity Y
BoneLengthAxis Y
ScaleFactor 1.00
[SegmentNames&Hierarchy]
#CHILD	PARENT
MASTER GLOBAL
root MASTER
chest root
L_mid_tent01 root
R_mid_tent01 root
spine01 root
Bip01_Neck chest
L_humerus chest
R_humerus chest
weapon_bone chest
Bip01_Head Bip01_Neck
eye_left_bone Bip01_Head
eye_right_bone Bip01_Head
L_forearm L_humerus
L_front_hand L_forearm
L_weapon_bone L_forearm
L_front_hand01_01 L_front_hand
L_front_hand02_01 L_front_hand
L_front_hand03_01 L_front_hand
L_front_hand01_02 L_front_hand01_01
L_front_hand02_02 L_front_hand02_01
L_front_hand03_02 L_front_hand03_01
R_forearm R_humerus
R_front_hand R_forearm
R_weapon_bone R_forearm
R_front_hand01_01 R_front_hand
R_front_hand02_01 R_front_hand
R_front_hand03_01 R_front_hand
R_front_hand01_02 R_front_hand01_01
R_front_hand02_02 R_front_hand02_01
R_front_hand03_02 R_front_hand03_01
null_rope01_connect L_mid_tent01
Rope1_Seg01 null_rope01_connect
Rope1_Seg02 Rope1_Seg01
Rope1_Seg03 Rope1_Seg02
Rope1_Seg04 Rope1_Seg03
Rope1_Seg05 Rope1_Seg04
Rope1_Seg06 Rope1_Seg05
Rope1_Seg07 Rope1_Seg06
Rope1_Seg09 Rope1_Seg07
L_mid_hand01 Rope1_Seg09
L_mid_hand02 Rope1_Seg09
L_mid_hand03 Rope1_Seg09
null_rope02_connect R_mid_tent01
Rope2_Seg01 null_rope02_connect
Rope2_Seg02 Rope2_Seg01
Rope2_Seg03 Rope2_Seg02
Rope2_Seg04 Rope2_Seg03
Rope2_Seg05 Rope2_Seg04
Rope2_Seg06 Rope2_Seg05
Rope2_Seg07 Rope2_Seg06
Rope2_Seg09 Rope2_Seg07
R_mid_hand01 Rope2_Seg09
R_mid_hand02 Rope2_Seg09
R_mid_hand03 Rope2_Seg09
spine02 spine01
spine03 spine02
pelvis spine03
null_rope03_connect pelvis
null_rope04_connect pelvis
Rope3_Seg01 null_rope03_connect
Rope3_Seg02 Rope3_Seg01
Rope3_Seg03 Rope3_Seg02
Rope3_Seg04 Rope3_Seg03
Rope3_Seg05 Rope3_Seg04
Rope3_Seg06 Rope3_Seg05
Rope3_Seg07 Rope3_Seg06
Rope3_Seg08 Rope3_Seg07
Rope3_Seg09 Rope3_Seg08
R_rear_hand01 Rope3_Seg09
R_rear_hand02 Rope3_Seg09
R_rear_hand03 Rope3_Seg09
Rope4_Seg01 null_rope04_connect
Rope4_Seg02 Rope4_Seg01
Rope4_Seg03 Rope4_Seg02
Rope4_Seg04 Rope4_Seg03
Rope4_Seg05 Rope4_Seg04
Rope4_Seg06 Rope4_Seg05
Rope4_Seg07 Rope4_Seg06
Rope4_Seg08 Rope4_Seg07
Rope4_Seg09 Rope4_Seg08
L_rear_hand01 Rope4_Seg09
L_rear_hand02 Rope4_Seg09
L_rear_hand03 Rope4_Seg09
[BasePosition]
#SegmentName Tx, Ty, Tz, Rx, Ry, Rz, BoneLength
MASTER 0.000000 0.000000 0.000000 -90.000000 0.000000 0.000000 10.000000 
root 0.000000 0.000000 0.000000 0.000000 0.000000 0.000000 10.000000 
chest 0.000000 0.000000 0.000000 0.000000 0.000000 0.000000 10.000000 
L_mid_tent01 0.000000 0.000000 0.000000 0.000000 0.000000 0.000000 10.000000 
R_mid_tent01 0.000000 0.000000 0.000000 0.000000 0.000000 0.000000 10.000000 
spine01 0.000000 0.000000 0.000000 0.000000 0.000000 0.000000 10.000000 
Bip01_Neck 0.000000 0.000000 0.000000 0.000000 0.000000 0.000000 10.000000 
L_humerus 0.000000 0.000000 0.000000 0.000000 0.000000 0.000000 10.000000 
R_humerus 0.000000 0.000000 0.000000 0.000000 0.000000 0.000000 10.000000 
weapon_bone 0.000000 0.000000 0.000000 0.000000 0.000000 0.000000 10.000000 
Bip01_Head 0.000000 0.000000 0.000000 0.000000 0.000000 0.000000 10.000000 
eye_left_bone 0.000000 0.000000 0.000000 0.000000 0.000000 0.000000 10.000000 
eye_right_bone 0.000000 0.000000 0.000000 0.000000 0.000000 0.000000 10.000000 
L_forearm 0.000000 0.000000 0.000000 0.000000 0.000000 0.000000 10.000000 
L_front_hand 0.000000 0.000000 0.000000 0.000000 0.000000 0.000000 10.000000 
L_weapon_bone 0.000000 0.000000 0.000000 0.000000 0.000000 0.000000 10.000000 
L_front_hand01_01 0.000000 0.000000 0.000000 0.000000 0.000000 0.000000 10.000000 
L_front_hand02_01 0.000000 0.000000 0.000000 0.000000 0.000000 0.000000 10.000000 
L_front_hand03_01 0.000000 0.000000 0.000000 0.000000 0.000000 0.000000 10.000000 
L_front_hand01_02 0.000000 0.000000 0.000000 0.000000 0.000000 0.000000 10.000000 
L_front_hand02_02 0.000000 0.000000 0.000000 0.000000 0.000000 0.000000 10.000000 
L_front_hand03_02 0.000000 0.000000 0.000000 0.000000 0.000000 0.000000 10.000000 
R_forearm 0.000000 0.000000 0.000000 0.000000 0.000000 0.000000 10.000000 
R_front_hand 0.000000 0.000000 0.000000 0.000000 0.000000 0.000000 10.000000 
R_weapon_bone 0.000000 0.000000 0.000000 0.000000 0.000000 0.000000 10.000000 
R_front_hand01_01 0.000000 0.000000 0.000000 0.000000 0.000000 0.000000 10.000000 
R_front_hand02_01 0.000000 0.000000 0.000000 0.000000 0.000000 0.000000 10.000000 
R_front_hand03_01 0.000000 0.000000 0.000000 0.000000 0.000000 0.000000 10.000000 
R_front_hand01_02 0.000000 0.000000 0.000000 0.000000 0.000000 0.000000 10.000000 
R_front_hand02_02 0.000000 0.000000 0.000000 0.000000 0.000000 0.000000 10.000000 
R_front_hand03_02 0.000000 0.000000 0.000000 0.000000 0.000000 0.000000 10.000000 
null_rope01_connect 0.000000 0.000000 0.000000 0.000000 0.000000 0.000000 10.000000 
Rope1_Seg01 0.000000 0.000000 0.000000 0.000000 0.000000 0.000000 10.000000 
Rope1_Seg02 0.000000 0.000000 0.000000 0.000000 0.000000 0.000000 10.000000 
Rope1_Seg03 0.000000 0.000000 0.000000 0.000000 0.000000 0.000000 10.000000 
Rope1_Seg04 0.000000 0.000000 0.000000 0.000000 0.000000 0.000000 10.000000 
Rope1_Seg05 0.000000 0.000000 0.000000 0.000000 0.000000 0.000000 10.000000 
Rope1_Seg06 0.000000 0.000000 0.000000 0.000000 0.000000 0.000000 10.000000 
Rope1_Seg07 0.000000 0.000000 0.000000 0.000000 0.000000 0.000000 10.000000 
Rope1_Seg09 0.000000 0.000000 0.000000 0.000000 0.000000 0.000000 10.000000 
L_mid_hand01 0.000000 0.000000 0.000000 0.000000 0.000000 0.000000 10.000000 
L_mid_hand02 0.000000 0.000000 0.000000 0.000000 0.000000 0.000000 10.000000 
L_mid_hand03 0.000000 0.000000 0.000000 0.000000 0.000000 0.000000 10.000000 
null_rope02_connect 0.000000 0.000000 0.000000 0.000000 0.000000 0.000000 10.000000 
Rope2_Seg01 0.000000 0.000000 0.000000 0.000000 0.000000 0.000000 10.000000 
Rope2_Seg02 0.000000 0.000000 0.000000 0.000000 0.000000 0.000000 10.000000 
Rope2_Seg03 0.000000 0.000000 0.000000 0.000000 0.000000 0.000000 10.000000 
Rope2_Seg04 0.000000 0.000000 0.000000 0.000000 0.000000 0.000000 10.000000 
Rope2_Seg05 0.000000 0.000000 0.000000 0.000000 0.000000 0.000000 10.000000 
Rope2_Seg06 0.000000 0.000000 0.000000 0.000000 0.000000 0.000000 10.000000 
Rope2_Seg07 0.000000 0.000000 0.000000 0.000000 0.000000 0.000000 10.000000 
Rope2_Seg09 0.000000 0.000000 0.000000 0.000000 0.000000 0.000000 10.000000 
R_mid_hand01 0.000000 0.000000 0.000000 0.000000 0.000000 0.000000 10.000000 
R_mid_hand02 0.000000 0.000000 0.000000 0.000000 0.000000 0.000000 10.000000 
R_mid_hand03 0.000000 0.000000 0.000000 0.000000 0.000000 0.000000 10.000000 
spine02 0.000000 0.000000 0.000000 0.000000 0.000000 0.000000 10.000000 
spine03 0.000000 0.000000 0.000000 0.000000 0.000000 0.000000 10.000000 
pelvis 0.000000 0.000000 0.000000 0.000000 0.000000 0.000000 10.000000 
null_rope03_connect 0.000000 0.000000 0.000000 0.000000 0.000000 0.000000 10.000000 
null_rope04_connect 0.000000 0.000000 0.000000 0.000000 0.000000 0.000000 10.000000 
Rope3_Seg01 0.000000 0.000000 0.000000 0.000000 0.000000 0.000000 10.000000 
Rope3_Seg02 0.000000 0.000000 0.000000 0.000000 0.000000 0.000000 10.000000 
Rope3_Seg03 0.000000 0.000000 0.000000 0.000000 0.000000 0.000000 10.000000 
Rope3_Seg04 0.000000 0.000000 0.000000 0.000000 0.000000 0.000000 10.000000 
Rope3_Seg05 0.000000 0.000000 0.000000 0.000000 0.000000 0.000000 10.000000 
Rope3_Seg06 0.000000 0.000000 0.000000 0.000000 0.000000 0.000000 10.000000 
Rope3_Seg07 0.000000 0.000000 0.000000 0.000000 0.000000 0.000000 10.000000 
Rope3_Seg08 0.000000 0.000000 0.000000 0.000000 0.000000 0.000000 10.000000 
Rope3_Seg09 0.000000 0.000000 0.000000 0.000000 0.000000 0.000000 10.000000 
R_rear_hand01 0.000000 0.000000 0.000000 0.000000 0.000000 0.000000 10.000000 
R_rear_hand02 0.000000 0.000000 0.000000 0.000000 0.000000 0.000000 10.000000 
R_rear_hand03 0.000000 0.000000 0.000000 0.000000 0.000000 0.000000 10.000000 
Rope4_Seg01 0.000000 0.000000 0.000000 0.000000 0.000000 0.000000 10.000000 
Rope4_Seg02 0.000000 0.000000 0.000000 0.000000 0.000000 0.000000 10.000000 
Rope4_Seg03 0.000000 0.000000 0.000000 0.000000 0.000000 0.000000 10.000000 
Rope4_Seg04 0.000000 0.000000 0.000000 0.000000 0.000000 0.000000 10.000000 
Rope4_Seg05 0.000000 0.000000 0.000000 0.000000 0.000000 0.000000 10.000000 
Rope4_Seg06 0.000000 0.000000 0.000000 0.000000 0.000000 0.000000 10.000000 
Rope4_Seg07 0.000000 0.000000 0.000000 0.000000 0.000000 0.000000 10.000000 
Rope4_Seg08 0.000000 0.000000 0.000000 0.000000 0.000000 0.000000 10.000000 
Rope4_Seg09 0.000000 0.000000 0.000000 0.000000 0.000000 0.000000 10.000000 
L_rear_hand01 0.000000 0.000000 0.000000 0.000000 0.000000 0.000000 10.000000 
L_rear_hand02 0.000000 0.000000 0.000000 0.000000 0.000000 0.000000 10.000000 
L_rear_hand03 0.000000 0.000000 0.000000 0.000000 0.000000 0.000000 10.000000 
#Beginning of Data. Separated by tabs
#Fr	Tx	Ty	Tz	Rx	Ry	Rz	SF
[MASTER]
32 -0.000654 4324.346191 -2850.229980 0.001660 0.001660 0.001660 5179.167969
33 -0.000664 4391.426270 -2955.726563 0.001660 0.001660 0.001660 5293.480957
[root]
32 -104.534599 -128.775009 572.900696 -92.575081 -20.886410 -91.357780 596.427490
33 -91.991997 -150.443420 609.774292 -90.051476 -20.838358 -91.439445 634.760132
[chest]
32 -84.512650 -34.090519 0.000000 -8.400300 -0.675849 150.471924 91.129311
33 -84.512650 -34.090519 0.000000 -8.251544 -0.602085 151.150238 91.129311
[L_mid_tent01]
32 27.299288 22.177662 -249.918289 -0.606414 33.410656 67.919922 252.381165
33 27.299282 22.177666 -249.918289 -0.501248 34.214291 67.976807 252.381165
[R_mid_tent01]
32 23.228794 24.509907 226.238495 166.125702 -25.626888 73.685547 228.744751
33 23.228794 24.509907 226.238495 165.018219 -25.817892 76.199432 228.744751
[spine01]
32 -0.361383 -0.195265 0.000000 0.001845 0.001451 13.654368 0.410763
33 -0.361383 -0.195265 0.000000 0.001845 0.001451 13.654368 0.410763
[Bip01_Neck]
32 165.484543 71.581718 0.000119 176.643677 -1.657967 43.431911 180.302734
33 165.484543 71.581718 0.000119 176.643677 -1.657967 43.431911 180.302734
[L_humerus]
32 -13.983130 -135.272980 -120.471481 172.160965 -4.375071 -88.980949 181.680161
33 -13.983130 -135.272980 -120.471481 172.136108 -6.492479 -88.690468 181.680161
[R_humerus]
32 -13.983309 -135.273102 125.287651 -176.997818 6.843567 -85.187271 184.909012
33 -13.983309 -135.273102 125.287651 -176.982941 8.756900 -85.080925 184.909012
[weapon_bone]
32 235.964890 -300.705902 0.000000 0.000000 -89.951546 -128.212341 382.234833
33 235.964890 -300.705902 0.000000 0.000000 -89.951546 -128.212341 382.234833
[Bip01_Head]
32 213.336777 186.015320 7.906876 5.200446 6.151311 -43.834991 283.155090
33 213.345459 185.990952 8.221924 5.200446 6.151311 -43.834991 283.154572
[eye_left_bone]
32 -24.626970 125.451866 -64.772606 0.000000 -90.000000 -99.840431 143.318359
33 -24.626970 125.451866 -64.772606 0.000000 -90.000000 -99.840431 143.318359
[eye_right_bone]
32 -24.626970 125.451866 64.327362 0.000000 -89.965736 80.156380 143.117676
33 -24.626970 125.451866 64.327362 0.000000 -89.965736 80.156380 143.117676
[L_forearm]
32 322.776093 0.000000 -0.000119 0.000119 -0.002344 -95.807457 322.776093
33 322.776093 0.000000 -0.000119 0.000119 -0.002344 -95.807457 322.776093
[L_front_hand]
32 241.149185 -0.042021 -3.300071 -178.667953 -1.835447 -27.422342 241.171753
33 241.149185 -0.042021 -3.300071 -178.667953 -1.835447 -27.422342 241.171753
[L_weapon_bone]
32 156.183838 0.000000 0.000000 0.000014 0.000007 0.000001 156.183838
33 156.183838 0.000000 0.000000 0.000014 0.000007 0.000001 156.183838
[L_front_hand01_01]
32 86.095154 20.947098 -0.655860 -0.366594 -0.477154 75.385574 88.609184
33 86.095154 20.947098 -0.655860 -0.366594 -0.477154 75.385574 88.609184
[L_front_hand02_01]
32 86.935165 -11.437475 24.513514 154.399796 -59.883835 -61.369587 91.046425
33 86.935165 -11.437475 24.513514 154.399796 -59.883835 -61.369587 91.046425
[L_front_hand03_01]
32 86.637497 -14.123976 -20.424902 -153.913849 58.118130 -62.702866 90.126129
33 86.637497 -14.123976 -20.424902 -153.913849 58.118122 -62.702866 90.126129
[L_front_hand01_02]
32 71.020905 -0.000179 0.000030 0.000334 -0.002323 -106.368164 71.020905
33 71.020905 -0.000179 0.000030 0.000334 -0.002323 -106.368973 71.020905
[L_front_hand02_02]
32 71.020927 -0.000119 0.000060 0.000334 -0.002323 -106.368164 71.020927
33 71.020927 -0.000119 0.000060 0.000334 -0.002323 -106.368973 71.020927
[L_front_hand03_02]
32 71.020905 -0.000060 0.000060 0.000334 -0.002323 -106.368164 71.020905
33 71.020905 -0.000060 0.000060 0.000334 -0.002323 -106.368973 71.020905
[R_forearm]
32 322.776428 -0.000060 0.000030 0.209504 0.012586 -94.339050 322.776428
33 322.776428 -0.000060 0.000030 0.209504 0.012586 -94.339050 322.776428
[R_front_hand]
32 238.847015 -0.006795 2.210259 -2.635298 -10.645461 -26.312506 238.857239
33 238.847015 -0.006795 2.210259 -2.635298 -10.645461 -26.312506 238.857239
[R_weapon_bone]
32 155.664093 0.002503 -0.000030 0.003487 0.001180 -90.988930 155.664078
33 155.664093 0.002503 -0.000030 0.003487 0.001180 -90.988930 155.664078
[R_front_hand01_01]
32 87.624611 14.231146 22.918642 -154.633514 -59.950634 61.746063 91.683487
33 87.624611 14.231146 22.918642 -154.633484 -59.950607 61.746033 91.683487
[R_front_hand02_01]
32 89.356956 14.367283 -19.491137 154.602661 58.302849 63.744389 92.579636
33 89.356956 14.367283 -19.491137 154.602661 58.302856 63.744389 92.579636
[R_front_hand03_01]
32 87.286232 -22.307278 -0.143439 0.162155 -0.423168 -75.767921 90.091743
33 87.286232 -22.307278 -0.143439 0.162155 -0.423168 -75.767906 90.091743
[R_front_hand01_02]
32 71.020905 0.000060 0.000119 0.002323 -0.000334 106.381714 71.020905
33 71.020905 0.000060 0.000119 0.002323 -0.000334 106.381714 71.020905
[R_front_hand02_02]
32 71.020844 -0.000030 -0.000119 0.002323 -0.000334 106.381714 71.020836
33 71.020844 -0.000030 -0.000119 0.002323 -0.000334 106.381714 71.020836
[R_front_hand03_02]
32 71.020905 0.000000 0.000030 0.002323 -0.000334 106.381714 71.020905
33 71.020905 0.000000 0.000030 0.002323 -0.000334 106.381714 71.020905
[null_rope01_connect]
32 328.732483 0.000000 -0.000238 -138.048828 -53.279079 -179.218735 328.732483
33 328.732483 0.000000 -0.000238 -136.529160 -54.764194 178.912033 328.732483
[Rope1_Seg01]
32 0.000000 0.000000 0.000000 83.724724 -20.211693 -151.083862 0.000000
33 0.000000 0.000000 0.000000 88.063507 -12.676655 -151.778503 0.000000
[Rope1_Seg02]
32 139.999863 -0.000179 0.000000 21.658155 -13.888214 -20.873493 139.999863
33 139.999863 -0.000179 0.000000 34.965229 -19.927309 -28.098860 139.999863
[Rope1_Seg03]
32 139.999924 0.000060 -0.000060 66.851929 -46.662792 -65.547356 139.999924
33 139.999924 0.000060 -0.000060 56.517830 -58.245190 -52.391457 139.999924
[Rope1_Seg04]
32 139.999924 -0.000060 -0.000119 -2.027338 -25.841850 6.732426 139.999924
33 139.999924 -0.000060 -0.000119 -2.923586 -18.630159 9.534856 139.999924
[Rope1_Seg05]
32 139.999832 0.000119 -0.000060 -1.355976 -9.774728 8.469632 139.999832
33 139.999832 0.000119 -0.000060 -0.954026 -7.502679 6.843678 139.999832
[Rope1_Seg06]
32 139.999954 0.000119 -0.000060 -1.322751 -5.253504 2.637200 139.999954
33 139.999954 0.000119 -0.000060 -1.053731 -4.157844 2.346373 139.999954
[Rope1_Seg07]
32 139.999985 0.000060 0.000000 -0.909158 -3.113082 1.471124 139.999985
33 139.999985 0.000060 0.000000 -0.721139 -2.527303 1.368125 139.999985
[Rope1_Seg09]
32 121.602913 0.000119 -0.000089 -89.793175 -1.359789 0.847147 121.602913
33 121.602913 0.000119 -0.000089 -89.793175 -1.359789 0.847147 121.602913
[L_mid_hand01]
32 103.859421 1.038730 8.195221 130.544373 -67.584534 -38.866943 104.187431
33 103.859421 1.038730 8.195221 130.544373 -67.584534 -38.866943 104.187431
[L_mid_hand02]
32 105.572853 -4.139662 -10.864139 -168.923172 43.409309 -73.498886 106.211075
33 105.572853 -4.139662 -10.864139 -168.923172 43.409309 -73.498894 106.211075
[L_mid_hand03]
32 104.641464 17.579376 -3.913581 -6.012627 17.808174 74.893669 106.179977
33 104.641464 17.579376 -3.913581 -6.012627 17.808174 74.893669 106.179977
[null_rope02_connect]
32 328.732849 0.000179 -0.000119 -110.398872 64.086395 29.598888 328.732849
33 328.732849 0.000179 -0.000119 -114.804443 61.758648 26.960224 328.732849
[Rope2_Seg01]
32 0.000050 0.000047 0.000105 98.228493 15.594379 -56.124512 0.000126
33 0.000049 0.000044 0.000109 80.689896 12.381511 -53.210037 0.000127
[Rope2_Seg02]
32 139.999741 -0.000060 -0.000119 119.637688 16.043056 -31.585684 139.999756
33 139.999741 -0.000060 -0.000119 144.833588 22.357340 -22.932899 139.999756
[Rope2_Seg03]
32 140.000107 0.000030 0.000000 8.954486 -54.796322 5.264744 140.000107
33 140.000107 0.000030 0.000000 -4.616867 -61.565155 21.685080 140.000107
[Rope2_Seg04]
32 139.999802 0.000000 -0.000060 -4.014714 -29.190876 15.727716 139.999802
33 139.999802 0.000000 -0.000060 -3.178480 -26.124779 14.884447 139.999802
[Rope2_Seg05]
32 139.999985 -0.000060 0.000119 -0.049868 -9.447693 5.128838 139.999985
33 139.999985 -0.000060 0.000119 0.288534 -8.256097 5.099782 139.999985
[Rope2_Seg06]
32 139.999893 -0.000030 -0.000119 -0.006391 -3.812574 1.877411 139.999893
33 139.999893 -0.000030 -0.000119 0.141517 -3.443932 1.932136 139.999893
[Rope2_Seg07]
32 139.999893 0.000060 -0.000060 0.000428 -2.209301 1.089919 139.999893
33 139.999893 0.000060 -0.000060 0.100583 -2.002535 1.132655 139.999893
[Rope2_Seg09]
32 121.338966 0.000089 -0.000060 33.793236 -1.359788 -0.847141 121.338966
33 121.338966 0.000089 -0.000060 33.793236 -1.359788 -0.847141 121.338966
[R_mid_hand01]
32 104.680779 11.144459 -10.335981 -16.212063 45.237247 70.462852 105.778534
33 104.680779 11.144459 -10.335981 -16.212063 45.237240 70.462845 105.778534
[R_mid_hand02]
32 104.070427 2.443552 8.231699 49.067368 -67.749771 39.286453 104.424065
33 104.070427 2.443552 8.231699 49.067394 -67.749794 39.286465 104.424065
[R_mid_hand03]
32 106.028137 -11.221827 -5.996406 -177.101105 15.551026 -76.585571 106.788818
33 106.028137 -11.221827 -5.996406 -177.101105 15.551026 -76.585571 106.788818
[spine02]
32 129.756927 0.001550 0.000119 -1.023899 -3.926965 6.770993 129.756927
33 129.756927 0.001550 0.000119 -1.023899 -3.926965 6.770993 129.756927
[spine03]
32 78.614288 0.087223 -4.898872 1.040681 4.146420 4.212376 78.766823
33 78.614304 0.087216 -4.898872 1.040681 4.146420 4.212376 78.766838
[pelvis]
32 169.435242 0.051022 0.000000 0.019518 -0.190233 -10.721436 169.435257
33 169.435242 0.051022 0.000000 0.019518 -0.190233 -10.721436 169.435257
[null_rope03_connect]
32 -1.257226 -2.466202 137.391083 -138.690186 -86.409691 -124.287819 137.418976
33 -1.257226 -2.466202 137.391083 -102.098732 -88.408600 -160.895111 137.418976
[null_rope04_connect]
32 -1.259640 -2.480268 -137.844437 -138.690186 -86.409691 -124.287819 137.872513
33 -1.259640 -2.480268 -137.844437 -102.098732 -88.408600 -160.895111 137.872513
[Rope3_Seg01]
32 -0.000006 -0.000444 -0.000153 -133.351608 -27.919931 -75.599937 0.000470
33 -0.000006 -0.000456 -0.000153 -134.024216 -27.603373 -73.913811 0.000481
[Rope3_Seg02]
32 139.999924 -0.000119 0.000060 -7.962222 -8.864687 -43.401901 139.999924
33 139.999924 -0.000119 0.000060 -11.177919 -5.372794 -42.577591 139.999924
[Rope3_Seg03]
32 139.999924 -0.000119 0.000119 -18.237825 4.519938 -14.446887 139.999924
33 139.999924 -0.000119 0.000119 -20.632288 7.361441 -15.322129 139.999924
[Rope3_Seg04]
32 139.999924 0.000119 0.000000 -36.173958 -0.583738 -21.804729 139.999924
33 139.999924 0.000119 0.000000 -44.663158 1.447837 -26.851507 139.999924
[Rope3_Seg05]
32 139.999924 -0.000238 0.000060 -106.795685 23.247578 -50.307373 139.999924
33 139.999924 -0.000238 0.000060 -94.743324 33.797039 -48.078838 139.999924
[Rope3_Seg06]
32 139.999893 -0.000119 -0.000060 -2.030867 16.520365 12.338099 139.999893
33 139.999893 -0.000119 -0.000060 -1.915557 13.547318 8.909248 139.999893
[Rope3_Seg07]
32 139.999771 0.000060 -0.000119 0.065543 5.381336 4.625412 139.999771
33 139.999771 0.000060 -0.000119 -0.015598 4.902357 3.644968 139.999771
[Rope3_Seg08]
32 139.999985 -0.000060 0.000000 0.360173 2.621467 2.260933 139.999985
33 139.999985 -0.000060 0.000000 0.327279 2.435186 1.819231 139.999985
[Rope3_Seg09]
32 90.185997 -0.000179 -0.000060 89.793228 -1.359877 -0.847183 90.185997
33 90.185997 -0.000179 -0.000060 89.793228 -1.359877 -0.847183 90.185997
[R_rear_hand01]
32 103.366196 -6.073594 -10.757982 -177.714203 24.565960 -73.910950 104.101845
33 103.366196 -6.073594 -10.757982 -177.714203 24.565960 -73.910950 104.101845
[R_rear_hand02]
32 100.509819 12.039542 -7.992327 -12.874829 36.868488 72.167213 101.543350
33 100.509819 12.039542 -7.992327 -12.874826 36.868481 72.167213 101.543350
[R_rear_hand03]
32 101.539970 5.215704 5.435467 71.484581 -71.816628 21.513813 101.819031
33 101.539970 5.215704 5.435467 71.484627 -71.816643 21.513803 101.819031
[Rope4_Seg01]
32 -0.000050 -0.000059 0.000000 53.000576 -29.843702 -106.513054 0.000078
33 -0.000049 -0.000055 0.000000 54.168983 -29.317064 -109.343819 0.000074
[Rope4_Seg02]
32 139.999985 0.000060 0.000119 8.296850 -33.133106 3.330215 139.999985
33 139.999985 0.000060 0.000119 9.142588 -32.730095 2.659010 139.999985
[Rope4_Seg03]
32 139.999924 0.000000 -0.000238 26.648735 -27.013882 16.379160 139.999924
33 139.999924 0.000000 -0.000238 29.230207 -26.958918 17.638174 139.999924
[Rope4_Seg04]
32 139.999985 0.000000 0.000119 40.694748 -25.866930 17.817509 139.999985
33 139.999985 0.000000 0.000119 46.953053 -29.438246 20.609661 139.999985
[Rope4_Seg05]
32 139.999802 -0.000060 -0.000119 40.443733 -15.735617 41.347507 139.999802
33 139.999802 -0.000060 -0.000119 36.879318 -10.758278 43.688896 139.999802
[Rope4_Seg06]
32 139.999924 0.000000 0.000060 5.695170 5.521428 11.961856 139.999924
33 139.999924 0.000000 0.000060 3.991494 5.305105 9.923058 139.999924
[Rope4_Seg07]
32 139.999802 0.000000 0.000000 1.587046 2.843657 4.623830 139.999802
33 139.999802 0.000000 0.000000 1.231044 2.669902 4.107797 139.999802
[Rope4_Seg08]
32 139.999924 0.000000 0.000119 -0.846934 1.547803 2.369545 139.999924
33 139.999924 0.000000 0.000119 -0.995557 1.444830 2.126019 139.999924
[Rope4_Seg09]
32 90.185791 0.000060 0.000060 -135.617828 2.228885 0.850567 90.185791
33 90.185791 0.000060 0.000060 -135.617828 2.228885 0.850567 90.185791
[L_rear_hand01]
32 101.696655 -8.392275 -7.654577 -12.874829 -36.868488 107.832764 102.329041
33 101.696655 -8.392275 -7.654577 -12.874829 -36.868488 107.832764 102.329041
[L_rear_hand02]
32 102.726799 -1.568258 5.773216 71.484581 71.816628 158.486160 102.900848
33 102.726799 -1.568258 5.773216 71.484581 71.816628 158.486160 102.900848
[L_rear_hand03]
32 104.552910 9.721220 -10.420293 -177.714203 -24.565960 -106.089035 105.519653
33 104.552910 9.721220 -10.420293 -177.714203 -24.565960 -106.089035 105.519653
